<?xml version="1.0" encoding="utf-8"?>
<!-- Generator: Adobe Illustrator 26.0.2, SVG Export Plug-In . SVG Version: 6.00 Build 0)  -->
<svg version="1.1" id="Layer_1" xmlns="http://www.w3.org/2000/svg"
	xmlns:xlink="http://www.w3.org/1999/xlink" x="0px" y="0px" viewBox="0 0 2007.5 1008.5"
	style="enable-background:new 0 0 2007.5 1008.5;" xml:space="preserve">
	<style type="text/css">
		.st0 {
			fill: #FFFFFF;
		}

		.st1 {
			fill: #F0D003;
		}

		.st2 {
			fill: #FFFAE6;
		}
	</style>
	<g>
		<g>
			<g>
				<polygon class="st0"
					points="665.6,654.1 665.6,542.7 640.4,542.7 640.4,675 712.5,675 722.9,654.1 			" />
				<rect x="764.4" y="542.7" class="st0" width="25.1" height="132.3" />
				<polygon class="st0" points="1076.7,675 1076.7,542.7 1051.5,542.7 1051.5,596.1 1002.8,596.1 1002.8,542.7 977.7,542.7
				977.7,675 1002.8,675 1002.8,616.9 1051.5,616.9 1051.5,675 			" />
				<polygon class="st0" points="1211.3,542.7 1124,542.7 1113.4,563.7 1149.8,563.7 1149.8,675 1174.9,675 1174.9,563.7
				1200.7,563.7 			" />
				<polygon class="st0" points="1347.4,675 1347.4,542.7 1323.7,542.7 1323.7,629.8 1269.4,542.7 1248.4,542.7 1248.4,675
				1272.2,675 1272.2,589.1 1326.3,675 			" />
				<rect x="1398.1" y="542.7" class="st0" width="25.1" height="132.3" />
				<polygon class="st0" points="1572.6,675 1572.6,542.7 1548.8,542.7 1548.8,629.8 1494.5,542.7 1473.6,542.7 1473.6,675
				1497.3,675 1497.3,589.1 1551.4,675 			" />
				<g>
					<path class="st0" d="M1655.4,675.6c1.7,0.4,3.4,0.7,5.1,1l0.4,0.1c2.7,0.4,5.1,0.5,7.4,0.5c1.9,0,3.9-0.1,6.1-0.3
					c0.1,0,0.2,0,0.2,0c0.1,0,0.1,0,0.2,0c0.1,0,0.2,0,0.3-0.1c0.1,0,0.3-0.1,0.5-0.1c13.9-1.1,25.6-6.4,34.7-15.5
					c9.2-9.2,12.7-20.6,12.7-40.7v-19.2h-38.6l-11.3,21h24.3h0.5v0.5v5.1c0,7.9-2.1,14.1-6.2,18.3c-5.2,5.4-11.4,6.9-16.2,7.6
					c-1.9,0.3-3.9,0.5-5.7,0.5c-16.6,0-33.4-14-33.4-45.2c0-22.6,10-45.4,32.4-45.4c1.6,0,3.2,0.1,4.9,0.3
					c9.1,1.5,19.8,7.5,23.2,17.7l21.3-12.5c-2.5-4.9-14.2-24.8-43.2-27.8l-0.4,0v0l-0.1,0c-2.2-0.2-4.3-0.3-6.2-0.3
					c-4.3,0-8.7,0.5-12.9,1.5l-0.6,0.1l-0.3,0.1c-0.8,0.2-1.6,0.4-2.5,0.7c-26,7.4-41.8,32.6-41.2,65.8c0,33.6,16.2,58.8,42.2,65.8
					l0,0.3c0,0,0.1,0,0.1,0c0,0,0,0,0,0l0.1-0.2C1654,675.3,1654.7,675.5,1655.4,675.6z" />
				</g>
				<g>
					<path class="st0" d="M871.7,675.6c1.7,0.4,3.4,0.7,5.1,1l0.4,0.1c2.7,0.4,5.1,0.5,7.4,0.5c1.9,0,3.9-0.1,6.1-0.3
					c0.1,0,0.2,0,0.2,0c0.1,0,0.1,0,0.2,0c0.1,0,0.2,0,0.3-0.1c0.1,0,0.3-0.1,0.5-0.1c13.9-1.1,25.6-6.4,34.7-15.5
					c9.2-9.2,12.7-20.6,12.7-40.7v-19.2h-38.6l-11.3,21h24.3h0.5v0.5v5.1c0,7.9-2.1,14.1-6.2,18.3c-5.2,5.4-11.4,6.9-16.2,7.6
					c-1.9,0.3-3.9,0.5-5.7,0.5c-16.6,0-33.4-14-33.4-45.2c0-22.6,10-45.4,32.4-45.4c1.6,0,3.2,0.1,4.9,0.3
					c9.1,1.5,19.8,7.5,23.2,17.7l21.3-12.5c-2.5-4.9-14.2-24.8-43.2-27.8l-0.4,0v0l-0.1,0c-2.2-0.2-4.3-0.3-6.2-0.3
					c-4.3,0-8.7,0.5-12.9,1.5l-0.6,0.1l-0.3,0.1c-0.8,0.2-1.6,0.4-2.5,0.7c-26,7.4-41.8,32.6-41.2,65.8c0,33.6,16.2,58.8,42.2,65.8
					l0,0.3c0,0,0.1,0,0.1,0c0,0,0,0,0,0l0.1-0.2C870.2,675.3,870.9,675.5,871.7,675.6z" />
				</g>
			</g>
			<g>
				<path class="st1"
					d="M967.8,413.8l23.9,52.2h27.6l-27.6-56.8l1.1-0.4c14.8-6.1,22.3-17.9,22.3-35.1c0-25.8-17.5-40-49.2-40h-47.1
				V466h25.1v-52.8h23.6L967.8,413.8z M943.9,392.4v-37.6h19.4c13.2,0,26.6,2.3,26.6,19c0,16.4-12.8,18.6-26.6,18.6H943.9z" />
				<polygon class="st1" points="1141,354.7 1141,333.7 1059.4,333.7 1059.4,466 1141,466 1141,445.2 1084.5,445.2 1084.5,407.9
				1135.2,407.9 1135.2,387.1 1084.5,387.1 1084.5,354.7 			" />
				<path class="st1" d="M690.2,446.3c-1.7,0.2-3.4,0.4-5,0.4c-23,0-33.3-23.3-33.3-46.4c0,0,0,0,0,0s0,0,0,0
				c0-23.1,10.3-46.4,33.3-46.4c1.6,0,3.3,0.1,5,0.4c9.1,1.5,19.9,7.5,23.7,17.6l20.3-12c-3.3-6.3-15.1-24.3-42.8-27.2l-1-0.1
				c-2.1-0.2-3.9-0.3-5.7-0.3c-4.3,0-8.6,0.5-12.8,1.5l-0.9,0.2c-0.8,0.2-1.6,0.4-2.4,0.7c-25.9,7.4-41.6,32.4-41.2,65.3
				c0,0,0,0.1,0,0.1c0,0.1,0,0.1,0,0.2s0,0.1,0,0.2c0,0,0,0.1,0,0.1c-0.4,32.9,15.3,57.9,41.2,65.3c0.8,0.3,1.6,0.5,2.4,0.7l0.9,0.2
				c4.2,1,8.5,1.5,12.8,1.5c1.8,0,3.6-0.1,5.7-0.3l1-0.1c27.7-2.8,39.5-20.9,42.8-27.2l-20.3-12
				C710.1,438.8,699.3,444.8,690.2,446.3z" />
				<path class="st1" d="M881.5,399.7c0,0,0-0.1,0-0.1c0.2-15.6-3.3-29.4-9.6-40.5l0,0c-1.8-3.4-6.1-10.2-13.9-16.2
				c-0.3-0.2-0.5-0.4-0.8-0.6c-0.6-0.5-1.3-0.9-2-1.4c-4.6-3.1-9.7-5.6-15.2-7.2c-0.8-0.3-1.6-0.5-2.4-0.7l-0.9-0.2
				c-4.2-1-8.6-1.5-12.9-1.5c-0.3,0-0.6,0-0.9,0c-0.3,0-0.6,0-0.9,0c-4.4,0-8.7,0.5-12.9,1.5l-0.9,0.2c-0.8,0.2-1.6,0.4-2.4,0.7
				c-5.6,1.6-10.6,4-15.2,7.2c-0.7,0.4-1.3,0.9-2,1.4c-0.3,0.2-0.5,0.4-0.8,0.6c-7.8,6-12.1,12.8-13.9,16.2l0,0
				c-6.4,11.1-9.8,24.9-9.6,40.5c0,0,0,0.1,0,0.1c0,0.1,0,0.1,0,0.2c0,0.1,0,0.1,0,0.2c0,0,0,0.1,0,0.1c-0.2,15.6,3.3,29.4,9.6,40.5
				l0,0c1.8,3.4,6.1,10.2,13.9,16.2c0.3,0.2,0.5,0.4,0.8,0.6c0.6,0.5,1.3,0.9,2,1.4c4.6,3.1,9.7,5.6,15.2,7.2
				c0.8,0.3,1.6,0.5,2.4,0.7l0.9,0.2c4.2,1,8.6,1.5,12.9,1.5c0.3,0,0.6,0,0.9,0c0.3,0,0.6,0,0.9,0c4.4,0,8.7-0.5,12.9-1.5l0.9-0.2
				c0.8-0.2,1.6-0.4,2.4-0.7c5.6-1.6,10.6-4,15.2-7.2c0.7-0.4,1.3-0.9,2-1.4c0.3-0.2,0.5-0.4,0.8-0.6c7.8-6,12.1-12.8,13.9-16.2l0,0
				c6.4-11.1,9.8-24.9,9.6-40.5c0,0,0-0.1,0-0.1c0-0.1,0-0.1,0-0.2C881.5,399.8,881.5,399.8,881.5,399.7z M838.4,442.5
				c-3.6,1.9-7.4,3.2-10.9,3.8c-1.6,0.2-3.1,0.3-4.7,0.3c-1.5,0-3.1-0.1-4.7-0.3c-3.6-0.6-7.4-1.9-10.9-3.8
				c-12.6-7.8-18.3-25.2-18.3-42.6c0,0,0,0,0,0c0,0,0,0,0,0c0-17.4,5.8-34.8,18.3-42.6c3.6-1.9,7.4-3.2,10.9-3.8
				c1.6-0.2,3.1-0.3,4.7-0.3c1.5,0,3.1,0.1,4.7,0.3c3.6,0.6,7.4,1.9,10.9,3.8c12.6,7.8,18.3,25.2,18.3,42.6c0,0,0,0,0,0c0,0,0,0,0,0
				C856.8,417.3,851,434.7,838.4,442.5z" />
			</g>
		</g>
		<g>
			<polygon class="st1" points="499.1,228.9 286.7,514.7 530.9,451.2 384.6,451.3 		" />
			<polygon class="st2" points="316.3,779.6 528.6,493.8 284.5,557.3 430.8,557.2 		" />
		</g>
	</g>
</svg>